<svg id="Ñëîé_1" data-name="Ñëîé 1" xmlns="http://www.w3.org/2000/svg" viewBox="0 0 708.12 800"><defs><style>.cls-1{fill:#342e3d;}.cls-2{fill:#564d60;}.cls-3{fill:#312c3a;}.cls-4{fill:#443c4f;}.cls-5{fill:#ffcb48;}</style></defs><title>hades illustrations</title><path class="cls-1" d="M725.7,120.2c-16.2-53.56,3.73-100.27,3.73-100.27s28,38,39.24,55.43S725.7,120.2,725.7,120.2Z" transform="translate(-706.48)"/><path class="cls-2" d="M1281.87,198.37c22.89-18.22,29.89-33.17,29.89-33.17l4.21-48.11-32.7,34.1S1276.73,182.48,1281.87,198.37Z" transform="translate(-706.48)"/><path class="cls-2" d="M1343.6,555.5c-1.11,0-2.23,0-3.36-.07-57.27-2.41-74.77-34.56-90.76-70.88-16.23-36.88-29.44-68.83-92.8-82.84l1.87-22.42c68.79,15.21,86.84,61.13,103.37,98.68,15.21,34.54,28.34,64.37,78.78,66.49,32.2,1.37,47.75-19.47,55.08-37.18,19.82-47.86,6.67-138.76-54.12-194.63-95-87.3-57.87-138.53-43.6-163.18l2.88,3.38-.19.32c-14,24.26-43.27,74.72,45.24,156.06,64.29,59.07,81.16,151,59.93,202.25C1394.13,540,1372.08,555.5,1343.6,555.5Z" transform="translate(-706.48)"/><path class="cls-3" d="M890.12,603.33C851,515.9,813.78,456.77,824.54,398.67S944.82,484.56,949,546.46c1.78,26.59-32.73,34.64-12.75,94.53-8,64.1-14.33,155.58-14.33,155.58H906.31S916.11,661.44,890.12,603.33Z" transform="translate(-706.48)"/><path class="cls-3" d="M1086,539.35c.94-8.4,15-106.5-5.6-135.46s-86.88-60.72-97.16-29-14.15,126.62,85,254.11c13.08,16.81,11.21,127.05-14,171h29c4.67-79.41,32.7-206.46,32.7-206.46S1085.06,547.76,1086,539.35Z" transform="translate(-706.48)"/><path class="cls-3" d="M922.51,800H884.2s13.62-26.89,24.52-31.72S922.51,800,922.51,800Z" transform="translate(-706.48)"/><path class="cls-3" d="M1083.19,800h-38.3s8.41-24.29,18.37-28.65S1083.19,800,1083.19,800Z" transform="translate(-706.48)"/><path class="cls-2" d="M1159.48,378.67s-56.49-15.33-108-20.49c-7.55-74.73-32.11-129-32.11-129l-199,15.89c-5.11,62.77.44,166.95,2.06,172,7.83,38.67,23.18,74.29,50.26,113,38.19,54.56,92.64,65.4,92.64,65.4,14.17-4,175.48-56.06,198.84-83.15S1159.48,378.67,1159.48,378.67Z" transform="translate(-706.48)"/><path class="cls-4" d="M1159.48,378.67s-53.11-18.5-104.63-23.67c-7.55-74.72-35.5-125.81-35.5-125.81l-56.67,18.07c-.92,48.33,51.07,252.86-34.75,288.23-36.49,15-81.66-45.19-105.93-121.19a20.62,20.62,0,0,0,.42,2.74c7.83,38.67,23.18,74.29,50.26,113,38.19,54.56,92.64,65.4,92.64,65.4,14.17-4,175.48-56.06,198.84-83.15S1159.48,378.67,1159.48,378.67Z" transform="translate(-706.48)"/><path class="cls-1" d="M1159.48,378.67a561.86,561.86,0,0,0-57.94-16,490.37,490.37,0,0,1-36.67,99c-27.24,55-61.86,100.9-97.79,133.19,22.4-6.7,174.45-56.39,197.08-82.63C1187.51,485.17,1159.48,378.67,1159.48,378.67Z" transform="translate(-706.48)"/><path class="cls-2" d="M742.51,157.57c68.51,71.62,78.48,110.08,76.61,173,0,0,79.1-54.65,77.85-120S817.25,102.14,792.34,97.16,742.51,157.57,742.51,157.57Z" transform="translate(-706.48)"/><path class="cls-4" d="M851.82,355.62c21.74-22.17,45.85-108.37,45.15-145.11-1.25-65.39-79.72-108.37-104.63-113.35s-49.83,60.41-49.83,60.41C780,196.76,799.93,226,810,254.79,814.22,247.24,851.82,248.5,851.82,355.62Z" transform="translate(-706.48)"/><path class="cls-1" d="M818.63,226.25c25-.67,51.8,24.8,65,59.44,8.19-28.07,13.67-57.41,13.33-75.18-1.25-65.39-79.72-108.37-104.63-113.35s-49.83,60.41-49.83,60.41c27.94,29.21,46.12,52.9,57.75,75A32,32,0,0,1,818.63,226.25Z" transform="translate(-706.48)"/><path class="cls-4" d="M1051.42,354.39c-11.08-80.15-10.48-143.84,14.25-184.38l-23.12-88.28S972.73,82.81,953,244.28C953,244.28,958.61,357.13,1051.42,354.39Z" transform="translate(-706.48)"/><path class="cls-1" d="M1065.67,170l-.28-1.08-56.63-53.09-9.11-7.23c-16.18,19.44-33,53-43,110.69l8.63,76.27c44.08-73.23,75.22-66.38,67.12,5.25l12.27-22.34C1043.6,233.56,1049.37,196.73,1065.67,170Z" transform="translate(-706.48)"/><path class="cls-2" d="M741,299.26l-20.56-.93S670.62,119.17,759.33,70.38C778,60.1,829.71,87.19,843.72,126.43,847.46,153.52,741,299.26,741,299.26Z" transform="translate(-706.48)"/><path class="cls-4" d="M843.72,126.43c-14-39.24-55.43-61.66-74.11-51.38-7.8,4.29,32.69,80.81,32.69,80.81s-51.44,105-71.63,142.93l10.29.47S847.46,153.52,843.72,126.43Z" transform="translate(-706.48)"/><path class="cls-2" d="M757.47,90.93c9.83-56,38.71-87.18,38.71-87.18s2.88,48.37,3.22,69.71S757.47,90.93,757.47,90.93Z" transform="translate(-706.48)"/><path class="cls-4" d="M769.2,91.68c5.44-39.91,22.58-63.27,22.58-63.27s2.16,33.87,2.55,48.86S769.2,91.68,769.2,91.68Z" transform="translate(-706.48)"/><path class="cls-4" d="M1017.16,106c-.08-57.95,23.56-96.78,23.56-96.78s11.57,46.79,15.73,67.7S1017.16,106,1017.16,106Z" transform="translate(-706.48)"/><path class="cls-1" d="M1051.33,95.58c27.47-51,66.72-73.94,66.72-73.94s-12.06,46.66-18.33,67S1051.33,95.58,1051.33,95.58Z" transform="translate(-706.48)"/><path class="cls-2" d="M996.22,602.46c-36.32-87.82-1.93-132.15,10.68-190.52s99.65-69.14,72.87,72.24c-5,26.27-56.73,95.95-38.66,156.11-10,64.39-19.27,156.28-19.27,156.28h-15.57S1020.37,660.83,996.22,602.46Z" transform="translate(-706.48)"/><path class="cls-4" d="M1006.9,411.94c-.07.32-.15.64-.22,1,17.11,14.62,31.55,51.42,35.54,95.5,3.61,39.83-33.3,67.39-59,48.7-2.34,11.21,9.34,36.75,18,60.44,17,63.76,5.08,179,5.08,179h15.57s9.28-91.89,19.27-156.28c-18.07-60.16,33.68-129.84,38.66-156.11C1106.55,342.8,1019.5,353.57,1006.9,411.94Z" transform="translate(-706.48)"/><path class="cls-1" d="M1082.15,459.79c-18.6,77.62-55.39,135.44-82.16,129.13-4.38-1-8.21-3.74-11.49-7.85,2.11,6.85,2.86,15.31,5.94,22.74,11.24,27.19,16,69.79,15.92,109,4.72-7.66,9.62-11.81,14.27-11.27,2.75.31,5.2,2.25,7.34,5.53,2.78-22.46,5.93-46,9.14-66.78-18.07-60.16,35.55-126.14,40.52-152.41,2.37-12.48,2-27.46,2.68-37.64C1083.63,453.41,1082.92,456.58,1082.15,459.79Z" transform="translate(-706.48)"/><path class="cls-2" d="M1036.18,800h-38.3s7.69-29.62,17.52-34.94S1036.18,800,1036.18,800Z" transform="translate(-706.48)"/><path class="cls-4" d="M1206.2,539.35c.93-8.4,14.94-106.5-5.61-135.46s-92.49-43-102.76-11.21-8.54,108.87,90.62,236.36c13.07,16.81,11.21,127.05-14,171h29c4.67-79.41,32.7-206.46,32.7-206.46S1205.26,547.76,1206.2,539.35Z" transform="translate(-706.48)"/><path class="cls-1" d="M1206.2,539.35c.93-8.4,14.94-106.5-5.61-135.46-3.84-5.41-9.48-10.3-16.18-14.47a281.6,281.6,0,0,1,15.43,57.06c11.77,71.44-3.46,133.44-34,138.47a25.46,25.46,0,0,1-9.44-.29c9.35,14.05,20,28.83,32.06,44.38,13.07,16.81,11.21,127.05-14,171h29c4.67-79.41,32.7-206.46,32.7-206.46S1205.26,547.76,1206.2,539.35Z" transform="translate(-706.48)"/><path class="cls-2" d="M1203.39,800h-38.3s8.41-24.29,18.37-28.65S1203.39,800,1203.39,800Z" transform="translate(-706.48)"/><path class="cls-1" d="M1078.36,516c-2.33-45.31-24.29-67.27-24.29-67.27,10.75,29.43,11.21,69.6-7.47,125.19Z" transform="translate(-706.48)"/><path class="cls-1" d="M1054.85,355A382.37,382.37,0,0,0,1045.9,303c-3.32-46.35-.72-85.34,11.07-115.23l-.25-1.5c-23.09,79.5-42.74,155.08-52.31,219.23,12-25.91,32.31-43.89,55.47-49.9C1058.2,355.35,1056.53,355.17,1054.85,355Z" transform="translate(-706.48)"/><path class="cls-2" d="M1110.74,285.7,1131.4,283s35.28-182.73-58.27-223.87c-19.71-8.66-69.59,22.7-80.45,63C991.17,149.46,1110.74,285.7,1110.74,285.7Z" transform="translate(-706.48)"/><path class="cls-4" d="M1073.13,59.16c-19.71-8.66-69.59,22.7-80.45,63-.72,13,26.11,50.84,54.37,86.83-.11-.84-.23-1.68-.34-2.53-6.61-53.06-10.23-88.54,7.21-78.76,28.34,15.88,59.65,17.64,68.38,70.09,5.73,34.44,4.13,66.64-3.12,86.84L1131.4,283S1166.68,100.3,1073.13,59.16Z" transform="translate(-706.48)"/><path class="cls-1" d="M1048.94,211.91c-34.57-46.24-39.71-115.37-31.3-130.32,0,0-33.63,24.75-41.11,66.79S1048.94,211.91,1048.94,211.91Z" transform="translate(-706.48)"/><path class="cls-1" d="M1024.2,94.56c0-35.73,14.52-59.67,14.52-59.67s7.14,28.84,9.7,41.73S1024.2,94.56,1024.2,94.56Z" transform="translate(-706.48)"/><path class="cls-5" d="M1084.75,135.46c-3.12-10.27-16.82-27.09-16.82-27.09s-10.27,9-10,11.21S1084.75,135.46,1084.75,135.46Z" transform="translate(-706.48)"/><polygon class="cls-5" points="409.1 109.93 407.85 126.12 416.88 123.94 409.1 109.93"/><polygon class="cls-1" points="404.26 285.7 434.48 305.33 443.82 272.63 430.74 212.38 418.6 210.51 404.26 285.7"/><path class="cls-4" d="M1110.74,285.7c1,1-56.67-122.83-56.67-122.83l-38.3,5.13S1076.33,253.45,1110.74,285.7Z" transform="translate(-706.48)"/><polygon class="cls-1" points="18.28 233.4 3.8 243.68 0.53 321.68 34.48 299.26 18.28 233.4"/><polygon class="cls-4" points="129.46 184.35 74.34 165.2 32.3 284.31 129.46 184.35"/><path class="cls-5" d="M736.91,162.87c2.33-16.35,11.68-41.58,11.68-41.58l21.48,3.27Z" transform="translate(-706.48)"/><path class="cls-2" d="M969.84,120.2l-95.29-4.36c-6.85,99.65,1.24,143.25,1.24,143.25S899.46,365,936.83,360,982.92,238.54,969.84,120.2Z" transform="translate(-706.48)"/><path class="cls-4" d="M878,360.61c7.48-51.07,28.52-56.06,37.37-56.06,29.28,0,47.34,28,46.71,74.74,20.73-46.41,17.28-173.24,7.79-259.09l-95.29-4.36C860.69,199.77,851.82,299.42,878,360.61Z" transform="translate(-706.48)"/><path class="cls-1" d="M975.13,303.93c8.41-55.12,3.12-150.72-5.29-183.73l-95.29-4.36C864,140.91,854.15,208.17,861.63,261,875.44,241,965.32,234.8,975.13,303.93Z" transform="translate(-706.48)"/><path class="cls-4" d="M979.18,84.11C966.44,47,877.51,50,866.45,80.09c-30.52,83,41.88,210.76,41.88,210.76l21.49-.5S1006,143.71,979.18,84.11Z" transform="translate(-706.48)"/><path class="cls-2" d="M963.27,95.67c-11.69-35-85.43-32.19-93.71-3.79-22.85,78.38,41.07,199,41.07,199l17.84-.48S987.29,151.93,963.27,95.67Z" transform="translate(-706.48)"/><polygon class="cls-4" points="158.42 105.57 200.14 147.29 219.14 147.29 262.11 102.45 265.23 138.57 263.98 151.65 264.61 168.16 230.82 268.9 220.54 236.67 212.6 158.5 203.57 158.5 157.17 137.95 158.42 105.57"/><path class="cls-2" d="M875.33,2.65s-24.14,57.76-8.57,105.1l38.31-29.9C870.81,42.35,875.33,2.65,875.33,2.65Z" transform="translate(-706.48)"/><path class="cls-4" d="M973.84,0s21.64,51.69,9.35,99L940.88,67.26C967.94,31.76,973.84,0,973.84,0Z" transform="translate(-706.48)"/><path class="cls-1" d="M975.81,23.64s8.6,30.29,3.71,68.45L962.7,82.88C973.46,48.48,975.81,23.64,975.81,23.64Z" transform="translate(-706.48)"/><path class="cls-4" d="M873.1,30.82S859.94,65.27,871,93.5l17.84-15A52.1,52.1,0,0,1,873.1,30.82Z" transform="translate(-706.48)"/><polygon class="cls-5" points="191.58 147.92 167.29 118.96 166.25 138.87 191.58 147.92"/><polygon class="cls-5" points="233.62 149.32 259.31 118.49 255.81 143.95 233.62 149.32"/><polygon class="cls-1" points="191.43 272.17 202.01 243.05 220.7 243.05 234.4 270.38 212.6 302.69 191.43 272.17"/></svg>